<svg xmlns="http://www.w3.org/2000/svg" width="427.83" height="311.37" viewBox="0 0 427.83 311.37"><defs><style>.cls-1{fill:#fff;}.cls-1,.cls-10,.cls-11,.cls-12,.cls-13,.cls-14,.cls-15,.cls-16,.cls-17,.cls-2,.cls-3,.cls-4,.cls-5,.cls-6,.cls-7,.cls-8,.cls-9{fill-rule:evenodd;}.cls-2{fill:#002432;}.cls-3{fill:#f15d65;}.cls-4{fill:#60b6e6;}.cls-5{fill:#ef464b;}.cls-6{fill:#d52532;}.cls-7{fill:#f15b5c;}.cls-8{fill:#e2e3e4;}.cls-9{fill:#c6c6c6;}.cls-10{fill:#6b6d74;}.cls-11{fill:#ffda19;}.cls-12{fill:#fde86d;}.cls-13{fill:#ffcd1a;}.cls-14{fill:#f1aa23;}.cls-15{fill:#f0ad6c;}.cls-16{fill:#f2cdab;}.cls-17{fill:#bf8348;}</style></defs><title>icon-story</title><g id="Layer_2" data-name="Layer 2"><g id="Layer_1-2" data-name="Layer 1"><path class="cls-1" d="M405.28,229.87l-16.39-18.4c7.16-.49,11.34-.68,11.34-.68l-62-69.17S257,145.75,213.79,176.31c-43.23-30.56-124.41-34.69-124.41-34.69l-62,69.17s4.18.19,11.33.68l-16.38,18.4v17.68c-4.62,4.63-15.81,14-15.81,14l-.38.39a3.9,3.9,0,0,0-1,2.76c0,3.47,3,5.35,6.65,5.35H198a21.23,21.23,0,0,0,15.44,6.26c7,0,10.67-2.55,16.09-6.26H416c3.67,0,6.64-1.88,6.64-5.35a3.86,3.86,0,0,0-1-2.76c-1.88-2-12.26-10.3-16.43-14.43Z"/><path class="cls-2" d="M400.13,231.82l-15.08-16.93-7-7.83,10.48-.72.76-.05L336.05,146.9c-13.59.95-81.54,6.93-119.3,33.62l-3,2.09-3-2.09c-37.75-26.69-105.71-32.67-119.3-33.62L38.28,206.29l.76.05,10.47.72-7,7.83L27.46,231.82v17.84L26,251.18c-4,4-12.61,11.36-15.3,13.64a4.61,4.61,0,0,0,1.15.12H200.22l1.53,1.61a14.42,14.42,0,0,0,5.09,3.39,17.71,17.71,0,0,0,6.63,1.25c5.37,0,8.51-2.14,13.08-5.27l.11-.07,1.32-.91H416a4.32,4.32,0,0,0,1.18-.13c-1-.94-2.85-2.47-4.87-4.19-3.73-3.16-8.16-6.91-10.69-9.43l-1.53-1.52V231.82ZM399.77,216l9.35,10.5,1.31,1.47v17.43c2.33,2.14,5.66,5,8.56,7.43s5.41,4.58,6.43,5.64l.06.06a8.54,8.54,0,0,1,1.78,2.93,10.13,10.13,0,0,1-3.16,11.2,12.81,12.81,0,0,1-8.06,2.63H231.13c-5.51,3.75-9.71,6.26-17.66,6.26a28,28,0,0,1-10.49-2,24.8,24.8,0,0,1-7-4.24H11.8a12.77,12.77,0,0,1-8.06-2.63,10.11,10.11,0,0,1-3.17-11.2,8.56,8.56,0,0,1,1.79-2.93l.1-.1.38-.39L3,257.8l.16-.13s9-7.55,14-12.27V227.92l1.31-1.47L27.81,216l-.62,0-11-.37,7.34-8.18,62-69.17,1.65-1.85,2.43.14c.23,0,79.12,4,124.15,33.61,45-29.58,123.92-33.6,124.15-33.61l2.44-.14L342,138.2l62,69.17,7.35,8.18-11,.37Z"/><polygon class="cls-2" points="91.3 253.89 22.2 253.89 22.3 223.7 27.44 225.65 27.44 249.4 91.3 253.89"/><polygon class="cls-2" points="336.62 252.07 405.72 252.07 405.63 225.95 400.48 223.83 400.48 247.58 336.62 252.07"/><path class="cls-2" d="M155.8,248.25c10.45-2.23,22.12,2.18,22.12,2.18s-17.68,17.06-25.85,60.94l-4.4-32L129,297.94S142.27,255.31,155.8,248.25Z"/><polygon class="cls-2" points="154.74 233.02 19.52 233.02 29.29 220.12 29.29 220.12 27.89 228.53 154.74 233.02"/><polygon class="cls-2" points="274 233.37 409.21 233.36 399.45 220.46 399.45 220.46 400.84 228.87 274 233.37"/><path class="cls-2" d="M234.69,234.22c47.2-15.73,122.22-20,159-21.19-.09-2.44-.2-5.08-.34-7.37-24,1.5-108.49,8.06-158.64,28.56ZM30.51,210.72c40.05,1.95,125.31,8.26,171,27.67C155.23,215.57,66.72,207.88,37,205.89Z"/><path class="cls-2" d="M90.92,160.72c25.46,1.63,79.65,6.91,108.68,23.15-29.4-19.09-85.66-25.52-104.55-27.19Z"/><path class="cls-2" d="M80.56,171.09c25.45,1.63,79.65,6.9,108.68,23.14C159.83,175.14,103.57,168.71,84.69,167Z"/><path class="cls-2" d="M69.78,181.87c25.46,1.62,79.65,6.9,108.68,23.14-29.41-19.09-85.67-25.52-104.55-27.19Z"/><path class="cls-2" d="M59.83,191.82c25.46,1.62,79.65,6.9,108.68,23.14C139.11,195.87,82.84,189.44,64,187.77Z"/><path class="cls-2" d="M158,151l-4.14,43.85-1.1,11.7,9.41-7.09L197.28,173l.86-.65.52-.94L277.57,30a14.86,14.86,0,0,0-5.72-20.23L258.7,2.43l-1-.54a14.89,14.89,0,0,0-19.6,4.69l-.09.08-.54,1L158.6,149l-.54,1L158,151Zm7.3,33.12,2.92-31.09L246,13.64l.53-1a4.52,4.52,0,0,1,2.72-2.12,4.47,4.47,0,0,1,3.39.35l0,0,14.1,7.87a4.59,4.59,0,0,1,1.75,6.14L190.16,165.35Z"/><path class="cls-3" d="M163.12,151.51,159,195.36l35.16-26.53L273.06,27.47a9.73,9.73,0,0,0-3.74-13.19L255.21,6.41A9.71,9.71,0,0,0,242,10.15Z"/><path class="cls-4" d="M263.88,43.89l-69.76,125-5.8,4.38-17.74,13.39L159,195.38l1.37-14.48,2.77-29.37h0l69.76-125A90.16,90.16,0,0,1,243.93,31a96.42,96.42,0,0,1,10.32,5.8A104.68,104.68,0,0,1,263.88,43.89Z"/><path class="cls-3" d="M163.1,151.53,159,195.38l35.16-26.53L273,27.49a9.72,9.72,0,0,0-3.74-13.19L255.2,6.43A9.73,9.73,0,0,0,242,10.17Z"/><path class="cls-5" d="M241.21,60.21l21.48-38.5c2.6-4.65,3.45-9.16,1.9-10l-4.7-2.62c-1.55-.87-4.94,2.23-7.54,6.88L230.87,54.43Z"/><path class="cls-6" d="M259.89,9.06,255.2,6.43A9.73,9.73,0,0,0,242,10.17L220.53,48.66l10.34,5.77,21.48-38.49C255,11.29,258.34,8.19,259.89,9.06Z"/><path class="cls-7" d="M251.55,66,273,27.49a9.72,9.72,0,0,0-3.74-13.19l-4.7-2.62c1.55.87.7,5.38-1.9,10l-21.48,38.5Z"/><path class="cls-1" d="M163.1,151.53,159,195.38l35.16-26.53L269.4,34a101.84,101.84,0,0,0-31-17.32Z"/><path class="cls-8" d="M269.4,34,258.11,54.22l-10.34-5.77,12-21.43A109.22,109.22,0,0,1,269.4,34Z"/><path class="cls-9" d="M249.4,21.22l-12,21.46,10.34,5.77,12-21.43A101,101,0,0,0,249.4,21.22Z"/><path class="cls-10" d="M249.4,21.22l-12,21.46L227.09,36.9l11.29-20.23A98.75,98.75,0,0,1,249.4,21.22Z"/><path class="cls-11" d="M163.1,151.53,159,195.38l35.16-26.53,69.76-125a95.32,95.32,0,0,0-31-17.32Z"/><path class="cls-12" d="M263.88,43.89l-69.76,125-8.85,6.68-6.43-3.59L254.25,36.83A104.68,104.68,0,0,1,263.88,43.89Z"/><path class="cls-13" d="M243.93,31,168.49,166.16l10.35,5.78L254.25,36.83A96.42,96.42,0,0,0,243.93,31Z"/><path class="cls-14" d="M243.93,31,168.49,166.16l-6.43-3.58,1-11.05,69.76-125A90.16,90.16,0,0,1,243.93,31Z"/><path class="cls-15" d="M163.1,151.53,159,195.38l35.16-26.53a99,99,0,0,0-31-17.32Z"/><path class="cls-16" d="M194.12,168.85,159,195.38l25.52-33.55A93.91,93.91,0,0,1,194.12,168.85Z"/><path class="cls-15" d="M184.48,161.83,159,195.38l15.18-39.33q2.64,1.27,5.26,2.74C181.14,159.76,182.84,160.77,184.48,161.83Z"/><path class="cls-17" d="M174.14,156.05,159,195.38l4.14-43.85A97.88,97.88,0,0,1,174.14,156.05Z"/><path class="cls-2" d="M159,181l-1.68,17.32,13.63-11C169.21,181.89,163.54,180.13,159,181Z"/></g></g></svg>